<mxfile host="app.diagrams.net" modified="2020-10-26T01:58:16.957Z" agent="5.0 (Macintosh; Intel Mac OS X 10_14_0) AppleWebKit/537.36 (KHTML, like Gecko) Chrome/86.0.4240.75 Safari/537.36" etag="IwV4znJkTKIS4AMf7Osg" version="13.8.2" type="github">
  <diagram id="5PGqGvHAd3ZTOwMsy703" name="Page-1">
    <mxGraphModel dx="946" dy="479" grid="1" gridSize="10" guides="1" tooltips="1" connect="1" arrows="1" fold="1" page="1" pageScale="1" pageWidth="827" pageHeight="1169" math="0" shadow="0">
      <root>
        <mxCell id="0" />
        <mxCell id="1" parent="0" />
        <mxCell id="h_5uxuIwo8VmxqVwxLFu-1" value="消费者" style="shape=umlActor;verticalLabelPosition=bottom;verticalAlign=top;html=1;outlineConnect=0;" vertex="1" parent="1">
          <mxGeometry x="160" y="410" width="30" height="60" as="geometry" />
        </mxCell>
        <mxCell id="h_5uxuIwo8VmxqVwxLFu-2" value="管理员" style="shape=umlActor;verticalLabelPosition=bottom;verticalAlign=top;html=1;outlineConnect=0;" vertex="1" parent="1">
          <mxGeometry x="160" y="200" width="30" height="60" as="geometry" />
        </mxCell>
        <mxCell id="h_5uxuIwo8VmxqVwxLFu-3" value="服务员" style="shape=umlActor;verticalLabelPosition=bottom;verticalAlign=top;html=1;outlineConnect=0;" vertex="1" parent="1">
          <mxGeometry x="600" y="280" width="30" height="60" as="geometry" />
        </mxCell>
        <mxCell id="h_5uxuIwo8VmxqVwxLFu-7" value="" style="whiteSpace=wrap;html=1;aspect=fixed;" vertex="1" parent="1">
          <mxGeometry x="250" y="190" width="290" height="290" as="geometry" />
        </mxCell>
        <mxCell id="h_5uxuIwo8VmxqVwxLFu-9" value="查询流水" style="ellipse;whiteSpace=wrap;html=1;" vertex="1" parent="1">
          <mxGeometry x="280" y="200" width="90" height="40" as="geometry" />
        </mxCell>
        <mxCell id="h_5uxuIwo8VmxqVwxLFu-10" value="导出" style="ellipse;whiteSpace=wrap;html=1;" vertex="1" parent="1">
          <mxGeometry x="280" y="250" width="90" height="40" as="geometry" />
        </mxCell>
        <mxCell id="h_5uxuIwo8VmxqVwxLFu-11" value="注册" style="ellipse;whiteSpace=wrap;html=1;" vertex="1" parent="1">
          <mxGeometry x="270" y="350" width="90" height="40" as="geometry" />
        </mxCell>
        <mxCell id="h_5uxuIwo8VmxqVwxLFu-12" value="缴费" style="ellipse;whiteSpace=wrap;html=1;" vertex="1" parent="1">
          <mxGeometry x="270" y="400" width="90" height="40" as="geometry" />
        </mxCell>
        <mxCell id="h_5uxuIwo8VmxqVwxLFu-13" value="消费" style="ellipse;whiteSpace=wrap;html=1;" vertex="1" parent="1">
          <mxGeometry x="270" y="440" width="90" height="40" as="geometry" />
        </mxCell>
        <mxCell id="h_5uxuIwo8VmxqVwxLFu-16" value="查询余额" style="ellipse;whiteSpace=wrap;html=1;" vertex="1" parent="1">
          <mxGeometry x="414" y="270" width="90" height="40" as="geometry" />
        </mxCell>
        <mxCell id="h_5uxuIwo8VmxqVwxLFu-17" value="扣费" style="ellipse;whiteSpace=wrap;html=1;" vertex="1" parent="1">
          <mxGeometry x="414" y="330" width="90" height="40" as="geometry" />
        </mxCell>
        <mxCell id="h_5uxuIwo8VmxqVwxLFu-19" value="" style="endArrow=classic;html=1;entryX=0;entryY=0.5;entryDx=0;entryDy=0;" edge="1" parent="1" source="h_5uxuIwo8VmxqVwxLFu-2" target="h_5uxuIwo8VmxqVwxLFu-9">
          <mxGeometry width="50" height="50" relative="1" as="geometry">
            <mxPoint x="390" y="250" as="sourcePoint" />
            <mxPoint x="440" y="200" as="targetPoint" />
          </mxGeometry>
        </mxCell>
        <mxCell id="h_5uxuIwo8VmxqVwxLFu-20" value="" style="endArrow=classic;html=1;" edge="1" parent="1" target="h_5uxuIwo8VmxqVwxLFu-10">
          <mxGeometry width="50" height="50" relative="1" as="geometry">
            <mxPoint x="200" y="238.57142857142856" as="sourcePoint" />
            <mxPoint x="290" y="230" as="targetPoint" />
          </mxGeometry>
        </mxCell>
        <mxCell id="h_5uxuIwo8VmxqVwxLFu-21" value="" style="endArrow=classic;html=1;entryX=0;entryY=1;entryDx=0;entryDy=0;" edge="1" parent="1" target="h_5uxuIwo8VmxqVwxLFu-11">
          <mxGeometry width="50" height="50" relative="1" as="geometry">
            <mxPoint x="190" y="418.57142857142856" as="sourcePoint" />
            <mxPoint x="280" y="410" as="targetPoint" />
          </mxGeometry>
        </mxCell>
        <mxCell id="h_5uxuIwo8VmxqVwxLFu-22" value="" style="endArrow=classic;html=1;entryX=0;entryY=0.5;entryDx=0;entryDy=0;" edge="1" parent="1" target="h_5uxuIwo8VmxqVwxLFu-12">
          <mxGeometry width="50" height="50" relative="1" as="geometry">
            <mxPoint x="200" y="428.57142857142856" as="sourcePoint" />
            <mxPoint x="293.1801948466052" y="394.14213562373095" as="targetPoint" />
            <Array as="points">
              <mxPoint x="230" y="420" />
            </Array>
          </mxGeometry>
        </mxCell>
        <mxCell id="h_5uxuIwo8VmxqVwxLFu-23" value="" style="endArrow=classic;html=1;" edge="1" parent="1" target="h_5uxuIwo8VmxqVwxLFu-13">
          <mxGeometry width="50" height="50" relative="1" as="geometry">
            <mxPoint x="210" y="438.57142857142856" as="sourcePoint" />
            <mxPoint x="303.1801948466052" y="404.14213562373095" as="targetPoint" />
          </mxGeometry>
        </mxCell>
        <mxCell id="h_5uxuIwo8VmxqVwxLFu-24" value="" style="endArrow=classic;html=1;" edge="1" parent="1" source="h_5uxuIwo8VmxqVwxLFu-3" target="h_5uxuIwo8VmxqVwxLFu-16">
          <mxGeometry width="50" height="50" relative="1" as="geometry">
            <mxPoint x="390" y="310" as="sourcePoint" />
            <mxPoint x="440" y="260" as="targetPoint" />
          </mxGeometry>
        </mxCell>
        <mxCell id="h_5uxuIwo8VmxqVwxLFu-25" value="" style="endArrow=classic;html=1;entryX=1;entryY=0.5;entryDx=0;entryDy=0;" edge="1" parent="1" target="h_5uxuIwo8VmxqVwxLFu-17">
          <mxGeometry width="50" height="50" relative="1" as="geometry">
            <mxPoint x="610" y="318.0769230769231" as="sourcePoint" />
            <mxPoint x="512.2370616031385" y="305.5432130260434" as="targetPoint" />
          </mxGeometry>
        </mxCell>
        <mxCell id="h_5uxuIwo8VmxqVwxLFu-30" value="云端服务器" style="verticalAlign=top;align=left;spacingTop=8;spacingLeft=2;spacingRight=12;shape=cube;size=10;direction=south;fontStyle=4;html=1;" vertex="1" parent="1">
          <mxGeometry x="190" y="540" width="130" height="120" as="geometry" />
        </mxCell>
        <mxCell id="h_5uxuIwo8VmxqVwxLFu-33" value="存储" style="shape=module;align=left;spacingLeft=20;align=center;verticalAlign=top;" vertex="1" parent="1">
          <mxGeometry x="190" y="585" width="100" height="30" as="geometry" />
        </mxCell>
        <mxCell id="h_5uxuIwo8VmxqVwxLFu-34" value="服务" style="shape=module;align=left;spacingLeft=20;align=center;verticalAlign=top;" vertex="1" parent="1">
          <mxGeometry x="190" y="615" width="100" height="35" as="geometry" />
        </mxCell>
        <mxCell id="h_5uxuIwo8VmxqVwxLFu-35" value="云端服务器" style="verticalAlign=top;align=left;spacingTop=8;spacingLeft=2;spacingRight=12;shape=cube;size=10;direction=south;fontStyle=4;html=1;" vertex="1" parent="1">
          <mxGeometry x="190" y="680" width="130" height="120" as="geometry" />
        </mxCell>
        <mxCell id="h_5uxuIwo8VmxqVwxLFu-36" value="存储" style="shape=module;align=left;spacingLeft=20;align=center;verticalAlign=top;" vertex="1" parent="1">
          <mxGeometry x="200" y="720" width="100" height="30" as="geometry" />
        </mxCell>
        <mxCell id="h_5uxuIwo8VmxqVwxLFu-37" value="服务" style="shape=module;align=left;spacingLeft=20;align=center;verticalAlign=top;" vertex="1" parent="1">
          <mxGeometry x="205" y="760" width="100" height="35" as="geometry" />
        </mxCell>
        <mxCell id="h_5uxuIwo8VmxqVwxLFu-40" value="api网关" style="verticalAlign=top;align=left;spacingTop=8;spacingLeft=2;spacingRight=12;shape=cube;size=10;direction=south;fontStyle=4;html=1;" vertex="1" parent="1">
          <mxGeometry x="370" y="580" width="100" height="130" as="geometry" />
        </mxCell>
        <mxCell id="h_5uxuIwo8VmxqVwxLFu-41" value="转发鉴权" style="shape=module;align=left;spacingLeft=20;align=center;verticalAlign=top;" vertex="1" parent="1">
          <mxGeometry x="370" y="640" width="80" height="40" as="geometry" />
        </mxCell>
        <mxCell id="h_5uxuIwo8VmxqVwxLFu-42" value="终端1" style="shape=module;align=left;spacingLeft=20;align=center;verticalAlign=top;" vertex="1" parent="1">
          <mxGeometry x="520" y="530" width="100" height="40" as="geometry" />
        </mxCell>
        <mxCell id="h_5uxuIwo8VmxqVwxLFu-43" value="终端2" style="shape=module;align=left;spacingLeft=20;align=center;verticalAlign=top;" vertex="1" parent="1">
          <mxGeometry x="521" y="610" width="100" height="40" as="geometry" />
        </mxCell>
        <mxCell id="h_5uxuIwo8VmxqVwxLFu-44" value="终端N" style="shape=module;align=left;spacingLeft=20;align=center;verticalAlign=top;" vertex="1" parent="1">
          <mxGeometry x="520" y="715" width="100" height="40" as="geometry" />
        </mxCell>
        <mxCell id="h_5uxuIwo8VmxqVwxLFu-46" value="......." style="text;html=1;align=center;verticalAlign=middle;resizable=0;points=[];autosize=1;" vertex="1" parent="1">
          <mxGeometry x="560" y="670" width="40" height="20" as="geometry" />
        </mxCell>
        <mxCell id="h_5uxuIwo8VmxqVwxLFu-48" value="" style="endArrow=classic;startArrow=classic;html=1;" edge="1" parent="1">
          <mxGeometry width="50" height="50" relative="1" as="geometry">
            <mxPoint x="320" y="740" as="sourcePoint" />
            <mxPoint x="370" y="690" as="targetPoint" />
          </mxGeometry>
        </mxCell>
        <mxCell id="h_5uxuIwo8VmxqVwxLFu-52" value="" style="endArrow=classic;startArrow=classic;html=1;entryX=0.477;entryY=1.04;entryDx=0;entryDy=0;entryPerimeter=0;exitX=0;exitY=0;exitDx=55;exitDy=0;exitPerimeter=0;" edge="1" parent="1" source="h_5uxuIwo8VmxqVwxLFu-30" target="h_5uxuIwo8VmxqVwxLFu-40">
          <mxGeometry width="50" height="50" relative="1" as="geometry">
            <mxPoint x="320" y="635" as="sourcePoint" />
            <mxPoint x="370" y="585" as="targetPoint" />
          </mxGeometry>
        </mxCell>
        <mxCell id="h_5uxuIwo8VmxqVwxLFu-53" value="" style="endArrow=classic;startArrow=classic;html=1;" edge="1" parent="1">
          <mxGeometry width="50" height="50" relative="1" as="geometry">
            <mxPoint x="470" y="600" as="sourcePoint" />
            <mxPoint x="520" y="550" as="targetPoint" />
          </mxGeometry>
        </mxCell>
        <mxCell id="h_5uxuIwo8VmxqVwxLFu-54" value="" style="endArrow=classic;startArrow=classic;html=1;" edge="1" parent="1">
          <mxGeometry width="50" height="50" relative="1" as="geometry">
            <mxPoint x="470" y="670" as="sourcePoint" />
            <mxPoint x="520" y="620" as="targetPoint" />
          </mxGeometry>
        </mxCell>
        <mxCell id="h_5uxuIwo8VmxqVwxLFu-55" value="" style="endArrow=classic;startArrow=classic;html=1;" edge="1" parent="1" source="h_5uxuIwo8VmxqVwxLFu-40">
          <mxGeometry width="50" height="50" relative="1" as="geometry">
            <mxPoint x="430" y="745" as="sourcePoint" />
            <mxPoint x="530" y="725" as="targetPoint" />
          </mxGeometry>
        </mxCell>
        <mxCell id="h_5uxuIwo8VmxqVwxLFu-56" value="终端" style="shape=module;align=left;spacingLeft=20;align=center;verticalAlign=top;" vertex="1" parent="1">
          <mxGeometry x="510" y="885" width="100" height="40" as="geometry" />
        </mxCell>
        <mxCell id="h_5uxuIwo8VmxqVwxLFu-60" value="api组件" style="shape=module;align=left;spacingLeft=20;align=center;verticalAlign=top;" vertex="1" parent="1">
          <mxGeometry x="330" y="880" width="100" height="50" as="geometry" />
        </mxCell>
        <mxCell id="h_5uxuIwo8VmxqVwxLFu-61" value="服务组件" style="shape=module;align=left;spacingLeft=20;align=center;verticalAlign=top;" vertex="1" parent="1">
          <mxGeometry x="180" y="860" width="100" height="50" as="geometry" />
        </mxCell>
        <mxCell id="h_5uxuIwo8VmxqVwxLFu-62" value="存储组件" style="shape=module;align=left;spacingLeft=20;align=center;verticalAlign=top;" vertex="1" parent="1">
          <mxGeometry x="180" y="950" width="100" height="50" as="geometry" />
        </mxCell>
        <mxCell id="h_5uxuIwo8VmxqVwxLFu-64" value="" style="endArrow=classic;startArrow=classic;html=1;entryX=0;entryY=0;entryDx=0;entryDy=15;entryPerimeter=0;" edge="1" parent="1" target="h_5uxuIwo8VmxqVwxLFu-56">
          <mxGeometry width="50" height="50" relative="1" as="geometry">
            <mxPoint x="430" y="910" as="sourcePoint" />
            <mxPoint x="480" y="860" as="targetPoint" />
          </mxGeometry>
        </mxCell>
        <mxCell id="h_5uxuIwo8VmxqVwxLFu-65" value="" style="endArrow=classic;startArrow=classic;html=1;entryX=0.1;entryY=0.2;entryDx=0;entryDy=0;entryPerimeter=0;exitX=1;exitY=0.5;exitDx=0;exitDy=0;" edge="1" parent="1" source="h_5uxuIwo8VmxqVwxLFu-61" target="h_5uxuIwo8VmxqVwxLFu-60">
          <mxGeometry width="50" height="50" relative="1" as="geometry">
            <mxPoint x="260" y="890" as="sourcePoint" />
            <mxPoint x="340" y="880" as="targetPoint" />
          </mxGeometry>
        </mxCell>
        <mxCell id="h_5uxuIwo8VmxqVwxLFu-66" value="" style="endArrow=classic;startArrow=classic;html=1;entryX=0.5;entryY=1;entryDx=0;entryDy=0;" edge="1" parent="1" source="h_5uxuIwo8VmxqVwxLFu-62" target="h_5uxuIwo8VmxqVwxLFu-61">
          <mxGeometry width="50" height="50" relative="1" as="geometry">
            <mxPoint x="280" y="970" as="sourcePoint" />
            <mxPoint x="360" y="960" as="targetPoint" />
          </mxGeometry>
        </mxCell>
        <mxCell id="h_5uxuIwo8VmxqVwxLFu-67" value="消费者" style="shape=umlLifeline;perimeter=lifelinePerimeter;whiteSpace=wrap;html=1;container=1;collapsible=0;recursiveResize=0;outlineConnect=0;" vertex="1" parent="1">
          <mxGeometry x="105" y="1040" width="100" height="470" as="geometry" />
        </mxCell>
        <mxCell id="h_5uxuIwo8VmxqVwxLFu-91" style="edgeStyle=orthogonalEdgeStyle;rounded=0;orthogonalLoop=1;jettySize=auto;html=1;" edge="1" parent="1" source="h_5uxuIwo8VmxqVwxLFu-68">
          <mxGeometry relative="1" as="geometry">
            <mxPoint x="320" y="1578" as="targetPoint" />
            <Array as="points">
              <mxPoint x="320" y="1450" />
              <mxPoint x="320" y="1450" />
            </Array>
          </mxGeometry>
        </mxCell>
        <mxCell id="h_5uxuIwo8VmxqVwxLFu-68" value="终端" style="shape=umlLifeline;perimeter=lifelinePerimeter;whiteSpace=wrap;html=1;container=1;collapsible=0;recursiveResize=0;outlineConnect=0;" vertex="1" parent="1">
          <mxGeometry x="270" y="1040" width="100" height="300" as="geometry" />
        </mxCell>
        <mxCell id="h_5uxuIwo8VmxqVwxLFu-70" value="" style="html=1;points=[];perimeter=orthogonalPerimeter;" vertex="1" parent="h_5uxuIwo8VmxqVwxLFu-68">
          <mxGeometry x="40" y="49" width="10" height="61" as="geometry" />
        </mxCell>
        <mxCell id="h_5uxuIwo8VmxqVwxLFu-69" value="服务器" style="shape=umlLifeline;perimeter=lifelinePerimeter;whiteSpace=wrap;html=1;container=1;collapsible=0;recursiveResize=0;outlineConnect=0;" vertex="1" parent="1">
          <mxGeometry x="430" y="1040" width="100" height="440" as="geometry" />
        </mxCell>
        <mxCell id="h_5uxuIwo8VmxqVwxLFu-71" value="消费" style="html=1;verticalAlign=bottom;startArrow=oval;endArrow=block;startSize=8;entryX=-0.2;entryY=0.025;entryDx=0;entryDy=0;entryPerimeter=0;" edge="1" target="h_5uxuIwo8VmxqVwxLFu-70" parent="1" source="h_5uxuIwo8VmxqVwxLFu-67">
          <mxGeometry relative="1" as="geometry">
            <mxPoint x="250" y="1110" as="sourcePoint" />
          </mxGeometry>
        </mxCell>
        <mxCell id="h_5uxuIwo8VmxqVwxLFu-75" value="" style="html=1;points=[];perimeter=orthogonalPerimeter;" vertex="1" parent="1">
          <mxGeometry x="470" y="1150" width="10" height="60" as="geometry" />
        </mxCell>
        <mxCell id="h_5uxuIwo8VmxqVwxLFu-76" value="查询余额" style="html=1;verticalAlign=bottom;endArrow=block;entryX=0;entryY=0;" edge="1" target="h_5uxuIwo8VmxqVwxLFu-75" parent="1" source="h_5uxuIwo8VmxqVwxLFu-68">
          <mxGeometry relative="1" as="geometry">
            <mxPoint x="400" y="1150" as="sourcePoint" />
          </mxGeometry>
        </mxCell>
        <mxCell id="h_5uxuIwo8VmxqVwxLFu-77" value="返回余额" style="html=1;verticalAlign=bottom;endArrow=open;dashed=1;endSize=8;exitX=0;exitY=0.95;" edge="1" source="h_5uxuIwo8VmxqVwxLFu-75" parent="1" target="h_5uxuIwo8VmxqVwxLFu-68">
          <mxGeometry relative="1" as="geometry">
            <mxPoint x="400" y="1226" as="targetPoint" />
          </mxGeometry>
        </mxCell>
        <mxCell id="h_5uxuIwo8VmxqVwxLFu-88" value="" style="html=1;points=[];perimeter=orthogonalPerimeter;" vertex="1" parent="1">
          <mxGeometry x="470" y="1250" width="10" height="60" as="geometry" />
        </mxCell>
        <mxCell id="h_5uxuIwo8VmxqVwxLFu-89" value="余额不足，充值" style="html=1;verticalAlign=bottom;endArrow=block;entryX=0;entryY=0;" edge="1" target="h_5uxuIwo8VmxqVwxLFu-88" parent="1" source="h_5uxuIwo8VmxqVwxLFu-67">
          <mxGeometry relative="1" as="geometry">
            <mxPoint x="400" y="1250" as="sourcePoint" />
          </mxGeometry>
        </mxCell>
        <mxCell id="h_5uxuIwo8VmxqVwxLFu-90" value="充值成功" style="html=1;verticalAlign=bottom;endArrow=open;dashed=1;endSize=8;exitX=0;exitY=0.95;" edge="1" source="h_5uxuIwo8VmxqVwxLFu-88" parent="1" target="h_5uxuIwo8VmxqVwxLFu-67">
          <mxGeometry relative="1" as="geometry">
            <mxPoint x="400" y="1326" as="targetPoint" />
          </mxGeometry>
        </mxCell>
        <mxCell id="h_5uxuIwo8VmxqVwxLFu-92" value="" style="html=1;points=[];perimeter=orthogonalPerimeter;" vertex="1" parent="1">
          <mxGeometry x="470" y="1350" width="10" height="60" as="geometry" />
        </mxCell>
        <mxCell id="h_5uxuIwo8VmxqVwxLFu-93" value="余额足，直接扣费" style="html=1;verticalAlign=bottom;endArrow=block;entryX=0;entryY=0;" edge="1" target="h_5uxuIwo8VmxqVwxLFu-92" parent="1">
          <mxGeometry relative="1" as="geometry">
            <mxPoint x="320" y="1350" as="sourcePoint" />
          </mxGeometry>
        </mxCell>
        <mxCell id="h_5uxuIwo8VmxqVwxLFu-94" value="成功" style="html=1;verticalAlign=bottom;endArrow=open;dashed=1;endSize=8;exitX=0;exitY=0.95;" edge="1" source="h_5uxuIwo8VmxqVwxLFu-92" parent="1">
          <mxGeometry relative="1" as="geometry">
            <mxPoint x="320" y="1407" as="targetPoint" />
          </mxGeometry>
        </mxCell>
        <mxCell id="h_5uxuIwo8VmxqVwxLFu-95" value="消费成功" style="html=1;verticalAlign=bottom;endArrow=open;dashed=1;endSize=8;" edge="1" parent="1" target="h_5uxuIwo8VmxqVwxLFu-67">
          <mxGeometry relative="1" as="geometry">
            <mxPoint x="310" y="1430" as="sourcePoint" />
            <mxPoint x="230" y="1320" as="targetPoint" />
          </mxGeometry>
        </mxCell>
      </root>
    </mxGraphModel>
  </diagram>
</mxfile>
